<svg width="512" height="512" viewBox="0 0 512 512" xmlns="http://www.w3.org/2000/svg">
  <defs>
    <linearGradient id="bgGradient" x1="0%" y1="0%" x2="100%" y2="100%">
      <stop offset="0%" style="stop-color:#4F46E5;stop-opacity:1" />
      <stop offset="100%" style="stop-color:#7C3AED;stop-opacity:1" />
    </linearGradient>
    <linearGradient id="arrowGradient" x1="0%" y1="0%" x2="100%" y2="0%">
      <stop offset="0%" style="stop-color:#FFFFFF;stop-opacity:1" />
      <stop offset="100%" style="stop-color:#F3F4F6;stop-opacity:1" />
    </linearGradient>
    <filter id="shadow" x="-20%" y="-20%" width="140%" height="140%">
      <feDropShadow dx="0" dy="4" stdDeviation="8" flood-color="#000000" flood-opacity="0.25"/>
    </filter>
  </defs>
  
  <!-- Background Circle -->
  <circle cx="256" cy="256" r="240" fill="url(#bgGradient)" filter="url(#shadow)"/>
  
  <!-- Document Icons -->
  <!-- Left Document -->
  <rect x="120" y="180" width="80" height="100" rx="8" fill="#FFFFFF" opacity="0.9"/>
  <rect x="130" y="200" width="60" height="4" rx="2" fill="#6B7280"/>
  <rect x="130" y="210" width="45" height="4" rx="2" fill="#6B7280"/>
  <rect x="130" y="220" width="50" height="4" rx="2" fill="#6B7280"/>
  <rect x="130" y="240" width="35" height="4" rx="2" fill="#6B7280"/>
  <rect x="130" y="250" width="55" height="4" rx="2" fill="#6B7280"/>
  
  <!-- Right Document -->
  <rect x="312" y="180" width="80" height="100" rx="8" fill="#FFFFFF" opacity="0.9"/>
  <rect x="322" y="200" width="60" height="4" rx="2" fill="#6B7280"/>
  <rect x="322" y="210" width="45" height="4" rx="2" fill="#6B7280"/>
  <rect x="322" y="220" width="50" height="4" rx="2" fill="#6B7280"/>
  <rect x="322" y="240" width="35" height="4" rx="2" fill="#6B7280"/>
  <rect x="322" y="250" width="55" height="4" rx="2" fill="#6B7280"/>
  
  <!-- Conversion Arrow -->
  <path d="M220 230 L280 230 L270 220 M280 230 L270 240" stroke="url(#arrowGradient)" stroke-width="6" stroke-linecap="round" stroke-linejoin="round" fill="none"/>
  
  <!-- Center Conversion Symbol -->
  <circle cx="256" cy="230" r="20" fill="#FFFFFF" opacity="0.95"/>
  <path d="M246 225 L256 235 L266 225 M256 235 L256 215" stroke="#4F46E5" stroke-width="3" stroke-linecap="round" stroke-linejoin="round" fill="none"/>
  <path d="M266 235 L256 225 L246 235 M256 225 L256 245" stroke="#4F46E5" stroke-width="3" stroke-linecap="round" stroke-linejoin="round" fill="none"/>
  
  <!-- File Type Indicators -->
  <!-- Left file type -->
  <rect x="125" y="185" width="20" height="8" rx="2" fill="#EF4444"/>
  <text x="135" y="191" font-family="Arial, sans-serif" font-size="6" font-weight="bold" text-anchor="middle" fill="#FFFFFF">PDF</text>
  
  <!-- Right file type -->
  <rect x="367" y="185" width="20" height="8" rx="2" fill="#10B981"/>
  <text x="377" y="191" font-family="Arial, sans-serif" font-size="6" font-weight="bold" text-anchor="middle" fill="#FFFFFF">DOC</text>
  
  <!-- Bottom Text -->
  <text x="256" y="340" font-family="Arial, sans-serif" font-size="24" font-weight="bold" text-anchor="middle" fill="#FFFFFF">Convert</text>
  <text x="256" y="365" font-family="Arial, sans-serif" font-size="14" text-anchor="middle" fill="#E5E7EB">Universal File Converter</text>
</svg>